<svg width="31" height="31" viewBox="0 0 31 31" fill="none" xmlns="http://www.w3.org/2000/svg">
<path d="M30 15.0314C30 19.0097 28.4196 22.825 25.6066 25.638C22.7936 28.4511 18.9782 30.0314 15 30.0314C11.0218 30.0314 7.20645 28.4511 4.3934 25.638C1.58035 22.825 6.00699e-07 19.0097 0 15.0314L8.49309 15.0314C8.49309 16.7572 9.17863 18.4122 10.3989 19.6325C11.6192 20.8528 13.2743 21.5383 15 21.5383C16.7257 21.5383 18.3808 20.8528 19.6011 19.6325C20.8214 18.4122 21.5069 16.7572 21.5069 15.0314H30Z" fill="#D9D9D9"/>
<path d="M0.0588378 15.9333C0.0588378 11.955 1.63919 8.13973 4.45224 5.32669C7.26528 2.51364 11.0806 0.933288 15.0588 0.933288C19.0371 0.933288 22.8524 2.51364 25.6654 5.32668C28.4785 8.13973 30.0588 11.955 30.0588 15.9333L21.5658 15.9333C21.5657 14.2075 20.8802 12.5525 19.6599 11.3322C18.4396 10.1119 16.7846 9.42638 15.0588 9.42638C13.3331 9.42638 11.678 10.1119 10.4578 11.3322C9.23747 12.5525 8.55193 14.2075 8.55193 15.9333H0.0588378Z" fill="#D9D9D9"/>
</svg>
