<svg width="139" height="159" viewBox="0 0 139 159" fill="none" xmlns="http://www.w3.org/2000/svg">
<rect width="139" height="159" rx="30" fill="url(#paint0_radial_11_124)"/>
<path d="M62.3249 117.676C62.3249 131.529 51.1208 142.757 37.3023 142.757C23.4838 142.757 12.2797 131.529 12.2797 117.676C12.2797 103.822 23.4838 92.5941 37.3023 92.5941C51.1208 92.5941 62.3249 103.822 62.3249 117.676Z" fill="white" stroke="white"/>
<path d="M47.809 117.676C47.809 124.025 43.0026 129.114 37.1428 129.114C31.283 129.114 26.4767 124.025 26.4767 117.676C26.4767 111.327 31.283 106.238 37.1428 106.238C43.0026 106.238 47.809 111.327 47.809 117.676Z" fill="#A2B0D3" stroke="#A2B0D3"/>
<rect width="16.5323" height="51.1536" rx="4" transform="matrix(0.827231 0.561862 -0.580169 0.814496 109.243 92.0941)" fill="white"/>
<rect width="16.5026" height="52.015" rx="4" transform="matrix(0.780553 -0.625089 0.643125 0.765761 77.7457 103.426)" fill="white"/>
<rect width="16.5323" height="51.1536" rx="4" transform="matrix(0.827231 0.561862 -0.580169 0.814496 44.8475 17.3168)" fill="white"/>
<rect width="16.5026" height="52.015" rx="4" transform="matrix(0.780553 -0.625089 0.643125 0.765761 13.3503 28.6491)" fill="white"/>
<path d="M125.15 42.8985C125.15 56.7518 113.946 67.9802 100.127 67.9802C86.3086 67.9802 75.1045 56.7518 75.1045 42.8985C75.1045 29.0452 86.3086 17.8168 100.127 17.8168C113.946 17.8168 125.15 29.0452 125.15 42.8985Z" fill="white" stroke="white"/>
<path d="M110.634 42.8985C110.634 49.2476 105.827 54.3366 99.9675 54.3366C94.1077 54.3366 89.3014 49.2476 89.3014 42.8985C89.3014 36.5494 94.1077 31.4604 99.9675 31.4604C105.827 31.4604 110.634 36.5494 110.634 42.8985Z" fill="#A2B0D3" stroke="#A2B0D3"/>
<defs>
<radialGradient id="paint0_radial_11_124" cx="0" cy="0" r="1" gradientUnits="userSpaceOnUse" gradientTransform="translate(69.5 79.5) rotate(90) scale(79.5 69.5)">
<stop offset="0.25" stop-color="#A2B0D3"/>
<stop offset="1" stop-color="#889BCC"/>
</radialGradient>
</defs>
</svg>
