<svg width="217" height="218" viewBox="0 0 217 218" fill="none" xmlns="http://www.w3.org/2000/svg">
<path d="M216.56 108.28C216.56 136.998 205.152 164.539 184.846 184.846C164.539 205.152 136.998 216.56 108.28 216.56C79.5624 216.56 52.0209 205.152 31.7145 184.846C11.408 164.539 4.33624e-06 136.998 0 108.28L61.3088 108.28C61.3088 120.738 66.2575 132.685 75.0663 141.494C83.8751 150.302 95.8225 155.251 108.28 155.251C120.738 155.251 132.685 150.302 141.494 141.494C150.302 132.685 155.251 120.738 155.251 108.28H216.56Z" fill="#FEEFAD"/>
<path d="M5.86843e-05 109.279C5.86843e-05 80.561 11.4081 53.0195 31.7145 32.7131C52.021 12.4066 79.5624 0.998594 108.28 0.998594C136.998 0.998594 164.539 12.4066 184.846 32.7131C205.152 53.0195 216.56 80.5609 216.56 109.279L155.251 109.279C155.251 96.821 150.303 84.8737 141.494 76.0649C132.685 67.2561 120.738 62.3074 108.28 62.3074C95.8225 62.3074 83.8752 67.2561 75.0664 76.0649C66.2576 84.8737 61.3088 96.8211 61.3088 109.279H5.86843e-05Z" fill="#FEEFAD"/>
</svg>
