<svg width="35" height="35" viewBox="0 0 35 35" fill="none" xmlns="http://www.w3.org/2000/svg">
<path d="M28.4375 25.5221C28.4375 20.6951 27.4925 19.6888 22.9687 19.6888H21.1458M6.56246 25.5221C6.56246 20.6951 7.50746 19.6888 12.0312 19.6888H13.8541M17.5 10.2096V16.043M2.91663 29.168C2.91663 27.7928 2.91663 27.1059 3.34392 26.6786C3.77121 26.2513 4.45808 26.2513 5.83329 26.2513H7.29163C8.66683 26.2513 9.35371 26.2513 9.781 26.6786C10.2083 27.1059 10.2083 27.7928 10.2083 29.168C10.2083 30.5432 10.2083 31.2301 9.781 31.6573C9.35371 32.0846 8.66683 32.0846 7.29163 32.0846H5.83329C4.45808 32.0846 3.77121 32.0846 3.34392 31.6573C2.91663 31.2301 2.91663 30.5432 2.91663 29.168ZM24.7916 29.168C24.7916 27.7928 24.7916 27.1059 25.2189 26.6786C25.6462 26.2513 26.3331 26.2513 27.7083 26.2513H29.1666C30.5418 26.2513 31.2287 26.2513 31.656 26.6786C32.0833 27.1059 32.0833 27.7928 32.0833 29.168C32.0833 30.5432 32.0833 31.2301 31.656 31.6573C31.2287 32.0846 30.5418 32.0846 29.1666 32.0846H27.7083C26.3331 32.0846 25.6462 32.0846 25.2189 31.6573C24.7916 31.2301 24.7916 30.5432 24.7916 29.168ZM14.5833 2.91797H20.4166C23.0635 2.91797 23.3333 4.26693 23.3333 6.5638C23.3333 8.86068 23.0635 10.2096 20.4166 10.2096H14.5833C11.9364 10.2096 11.6666 8.86068 11.6666 6.5638C11.6666 4.26693 11.9364 2.91797 14.5833 2.91797Z" stroke="black" stroke-width="1.5" stroke-linecap="round" stroke-linejoin="round"/>
<path d="M21.1458 19.6888C21.1458 20.6557 20.7617 21.5831 20.078 22.2668C19.3942 22.9505 18.4669 23.3346 17.5 23.3346C16.533 23.3346 15.6057 22.9505 14.922 22.2668C14.2382 21.5831 13.8541 20.6557 13.8541 19.6888C13.8541 18.7219 14.2382 17.7945 14.922 17.1108C15.6057 16.4271 16.533 16.043 17.5 16.043C18.4669 16.043 19.3942 16.4271 20.078 17.1108C20.7617 17.7945 21.1458 18.7219 21.1458 19.6888Z" stroke="black" stroke-width="1.5" stroke-linecap="round" stroke-linejoin="round"/>
</svg>
