<svg width="29" height="29" viewBox="0 0 29 29" fill="none" xmlns="http://www.w3.org/2000/svg">
<rect width="27.5894" height="27.5894" transform="translate(0.703758 0.665649)" fill="white"/>
<path d="M14.4985 26.8181C21.3235 26.8181 26.8562 21.2854 26.8562 14.4604C26.8562 7.63535 21.3235 2.10259 14.4985 2.10259C7.67348 2.10259 2.14072 7.63535 2.14072 14.4604C2.14072 21.2854 7.67348 26.8181 14.4985 26.8181Z" stroke="black" stroke-width="1.14956" stroke-linecap="round" stroke-linejoin="round"/>
<path d="M10.2307 11.3974C10.728 10.5282 11.4559 9.81351 12.3339 9.33211C13.2119 8.85071 14.2059 8.62138 15.206 8.66945C15.2764 8.6613 15.3476 8.66805 15.4152 8.68927C15.4827 8.71048 15.545 8.74569 15.5981 8.7926C15.6511 8.8395 15.6937 8.89705 15.723 8.9615C15.7523 9.02594 15.7677 9.09584 15.7682 9.16664V19.9357C15.7682 19.9357 15.8182 20.2616 15.2066 20.2616C12.7661 20.2616 11.2096 19.2512 10.2296 17.5538H7.57067C7.53011 17.5541 7.48997 17.5457 7.45286 17.5294C7.41576 17.513 7.38255 17.4889 7.3554 17.4588C7.32826 17.4287 7.3078 17.3931 7.29537 17.3545C7.28294 17.3159 7.27882 17.2751 7.28328 17.2348L7.28443 11.7141C7.2804 11.674 7.28484 11.6335 7.29747 11.5952C7.3101 11.557 7.33062 11.5218 7.35772 11.492C7.38482 11.4622 7.41789 11.4384 7.45477 11.4222C7.49165 11.406 7.53153 11.3977 7.57182 11.3979L10.2307 11.3974Z" stroke="black" stroke-width="1.14956" stroke-linecap="round" stroke-linejoin="round"/>
<path d="M16.7815 13.3355C16.9745 13.6785 17.0806 14.0637 17.0903 14.4572C17.1 14.8507 17.0131 15.2405 16.8373 15.5927M18.0627 12.0739C19.4583 13.6131 19.51 15.3909 18.2035 16.9515M19.4266 10.7352C21.8177 13.1384 21.8695 15.8944 19.5686 18.316M14.387 18.5045C13.7313 18.4893 13.0927 18.2929 12.5418 17.937C11.9909 17.5811 11.5493 17.0796 11.2659 16.4882C10.9487 15.8633 10.7833 15.1724 10.7833 14.4716C10.7833 13.7708 10.9487 13.0798 11.2659 12.455C11.5493 11.8635 11.9909 11.362 12.5418 11.0062C13.0927 10.6503 13.7313 10.4538 14.387 10.4386V18.5045Z" stroke="black" stroke-width="1.14956" stroke-linecap="round" stroke-linejoin="round"/>
</svg>
