<svg width="28" height="28" viewBox="0 0 28 28" fill="none" xmlns="http://www.w3.org/2000/svg">
<path d="M13.795 26.153C20.6201 26.153 26.153 20.6201 26.153 13.795C26.153 6.96985 20.6201 1.43698 13.795 1.43698C6.96986 1.43698 1.43698 6.96985 1.43698 13.795C1.43698 20.6201 6.96986 26.153 13.795 26.153Z" stroke="black" stroke-linecap="round" stroke-linejoin="round"/>
<path d="M9.52717 10.7319C10.0245 9.8628 10.7523 9.14805 11.6303 8.66664C12.5084 8.18523 13.5024 7.9559 14.5026 8.00397C14.5729 7.99582 14.6442 8.00257 14.7117 8.02379C14.7792 8.045 14.8416 8.08021 14.8946 8.12712C14.9476 8.17402 14.9902 8.23157 15.0195 8.29602C15.0488 8.36047 15.0642 8.43037 15.0647 8.50117V19.2705C15.0647 19.2705 15.1147 19.5964 14.5031 19.5964C12.0626 19.5964 10.506 18.5859 9.52602 16.8885H6.86704C6.82648 16.8888 6.78633 16.8804 6.74923 16.8641C6.71213 16.8477 6.67891 16.8236 6.65177 16.7935C6.62462 16.7634 6.60416 16.7278 6.59173 16.6892C6.5793 16.6506 6.57518 16.6098 6.57964 16.5695L6.58079 11.0486C6.57676 11.0086 6.58121 10.9681 6.59383 10.9298C6.60646 10.8916 6.62699 10.8564 6.65409 10.8266C6.68119 10.7968 6.71425 10.773 6.75114 10.7568C6.78802 10.7406 6.8279 10.7323 6.86819 10.7325L9.52717 10.7319Z" stroke="black" stroke-linecap="round" stroke-linejoin="round"/>
<path d="M16.0781 12.6701C16.2711 13.0132 16.3771 13.3983 16.3869 13.7918C16.3966 14.1853 16.3097 14.5752 16.1338 14.9273M17.3593 11.4085C18.7549 12.9478 18.8066 14.7256 17.5001 16.2861M18.7233 10.0698C21.1144 12.473 21.1661 15.2291 18.8652 17.6507M13.6835 17.8392C13.0278 17.824 12.3891 17.6276 11.8383 17.2717C11.2874 16.9158 10.8458 16.4143 10.5624 15.8229C10.2451 15.198 10.0798 14.507 10.0798 13.8062C10.0798 13.1054 10.2451 12.4144 10.5624 11.7896C10.8458 11.1981 11.2874 10.6966 11.8383 10.3407C12.3891 9.98482 13.0278 9.78839 13.6835 9.77318V17.8392Z" stroke="black" stroke-linecap="round" stroke-linejoin="round"/>
<line x1="6.6508" y1="7.66978" x2="19.871" y2="19.1656" stroke="black"/>
</svg>
