<svg width="25" height="25" viewBox="0 0 25 25" fill="none" xmlns="http://www.w3.org/2000/svg">
<path d="M8.5 8.5V16M1 12.25V12.2625M23.5 12.25V12.2625M12.25 23.5V23.5125M6.625 2.5V2.5125M17.875 22V22.0125M6.625 22V22.0125M2.5 17.875V17.8875M22 17.875V17.8875M2.5 6.625V6.6375M22.0125 6.65875C21.0277 4.93935 19.6063 3.51055 17.892 2.51689C16.1777 1.52322 14.2314 0.999946 12.25 1M12.25 11V13.5C12.25 14.163 12.5134 14.7989 12.9822 15.2678C13.4511 15.7366 14.087 16 14.75 16C15.413 16 16.0489 15.7366 16.5178 15.2678C16.9866 14.7989 17.25 14.163 17.25 13.5V11C17.25 10.337 16.9866 9.70107 16.5178 9.23223C16.0489 8.76339 15.413 8.5 14.75 8.5C14.087 8.5 13.4511 8.76339 12.9822 9.23223C12.5134 9.70107 12.25 10.337 12.25 11Z" stroke="black" stroke-width="2" stroke-linecap="round" stroke-linejoin="round"/>
</svg>
