<svg width="25" height="25" viewBox="0 0 25 25" fill="none" xmlns="http://www.w3.org/2000/svg">
<path d="M9.75389 15.9983H12.255C12.7525 15.9983 13.2296 15.8008 13.5814 15.4492C13.9332 15.0976 14.1308 14.6208 14.1308 14.1235C14.1308 13.6263 13.9332 13.1495 13.5814 12.7979C13.2296 12.4463 12.7525 12.2488 12.255 12.2488H9.75389V8.49917H14.1308M1 12.2488V12.2612M23.51 12.2488V12.2612M12.255 23.4975V23.51M6.6275 2.49983V2.51233M17.8825 21.9977V22.0102M6.6275 21.9977V22.0102M2.50067 17.8731V17.8856M22.0093 17.8731V17.8856M22.0093 6.62438V6.63687M2.50067 6.62438V6.63687M17.8825 2.50733C16.1706 1.52213 14.2304 1.00243 12.255 1" stroke="black" stroke-width="2" stroke-linecap="round" stroke-linejoin="round"/>
</svg>
