<svg width="25" height="24" viewBox="0 0 25 24" fill="none" xmlns="http://www.w3.org/2000/svg">
<path d="M12.255 15.0672H14.7561C15.0878 15.0672 15.4059 14.9437 15.6404 14.7238C15.8749 14.504 16.0067 14.2058 16.0067 13.8949V12.7227C16.0067 12.4118 15.8749 12.1136 15.6404 11.8937C15.4059 11.6739 15.0878 11.5504 14.7561 11.5504H12.255V8.03359H16.0067M8.50333 8.03359V15.0672M1 11.5504V11.5621M12.255 22.1008V22.1125M6.6275 2.40672V2.41844M17.8825 20.6941V20.7058M6.6275 20.6941V20.7058M2.50067 16.8256V16.8373M22.0093 16.8256V16.8373M2.50067 6.2752V6.28692M23.51 11.5504C23.51 8.75225 22.3242 6.06872 20.2135 4.09014C18.1028 2.11156 15.24 1 12.255 1" stroke="black" stroke-width="2" stroke-linecap="round" stroke-linejoin="round"/>
</svg>
