<svg width="59" height="59" viewBox="0 0 59 59" fill="none" xmlns="http://www.w3.org/2000/svg">
<circle cx="29.275" cy="29.275" r="29.275" fill="#D9D9D9"/>
<path opacity="0.15" d="M13.6562 45.9688C13.6562 46.292 15.3255 46.602 18.2968 46.8305C21.2681 47.0591 25.298 47.1875 29.5 47.1875C33.702 47.1875 37.7319 47.0591 40.7032 46.8305C43.6745 46.602 45.3438 46.292 45.3438 45.9688C45.3438 45.6455 43.6745 45.3355 40.7032 45.107C37.7319 44.8784 33.702 44.75 29.5 44.75C25.298 44.75 21.2681 44.8784 18.2968 45.107C15.3255 45.3355 13.6563 45.6455 13.6562 45.9688Z" fill="#45413C"/>
<path d="M44.125 41.9062C44.125 42.7682 43.7826 43.5949 43.1731 44.2043C42.5636 44.8138 41.737 45.1562 40.875 45.1562H18.125C17.263 45.1562 16.4364 44.8138 15.8269 44.2043C15.2174 43.5949 14.875 42.7682 14.875 41.9062V30.9375C14.875 27.0587 16.4158 23.3388 19.1586 20.5961C21.9013 17.8533 25.6212 16.3125 29.5 16.3125C33.3788 16.3125 37.0987 17.8533 39.8414 20.5961C42.5842 23.3388 44.125 27.0587 44.125 30.9375V41.9062Z" fill="#DAEDF7"/>
<path d="M29.5 16.3125C25.6212 16.3125 21.9013 17.8533 19.1586 20.5961C16.4158 23.3388 14.875 27.0587 14.875 30.9375V35C14.875 31.1212 16.4158 27.4013 19.1586 24.6586C21.9013 21.9158 25.6212 20.375 29.5 20.375C33.3788 20.375 37.0987 21.9158 39.8414 24.6586C42.5842 27.4013 44.125 31.1212 44.125 35V30.9375C44.125 27.0587 42.5842 23.3388 39.8414 20.5961C37.0987 17.8533 33.3788 16.3125 29.5 16.3125Z" fill="white"/>
<path d="M44.125 41.9062C44.125 42.7682 43.7826 43.5949 43.1731 44.2043C42.5636 44.8138 41.737 45.1562 40.875 45.1562H18.125C17.263 45.1562 16.4364 44.8138 15.8269 44.2043C15.2174 43.5949 14.875 42.7682 14.875 41.9062V30.9375C14.875 27.0587 16.4158 23.3388 19.1586 20.5961C21.9013 17.8533 25.6212 16.3125 29.5 16.3125C33.3788 16.3125 37.0987 17.8533 39.8414 20.5961C42.5842 23.3388 44.125 27.0587 44.125 30.9375V41.9062Z" stroke="#45413C" stroke-linecap="round" stroke-linejoin="round"/>
<path d="M24.2188 36.625H34.7812V46.375H24.2188V36.625Z" fill="#C0DCEB"/>
<path d="M24.2188 40.2812H34.7812V41.9062H24.2188V40.2812Z" fill="#ADC4D9"/>
<path d="M46.9688 38.185C46.9693 38.3282 46.9321 38.4689 46.8607 38.5931C46.7894 38.7172 46.6865 38.8203 46.5625 38.8919L44.125 40.2812V30.125L46.5625 31.5144C46.6865 31.586 46.7894 31.689 46.8607 31.8132C46.9321 31.9373 46.9693 32.0781 46.9688 32.2213V38.185ZM12.0313 38.185C12.0307 38.3282 12.068 38.4689 12.1393 38.5931C12.2106 38.7172 12.3135 38.8203 12.4375 38.8919L14.875 40.2812V30.125L12.4375 31.5144C12.3135 31.586 12.2106 31.689 12.1393 31.8132C12.068 31.9373 12.0307 32.0781 12.0313 32.2213V38.185Z" fill="#ADC4D9" stroke="#45413C" stroke-linecap="round" stroke-linejoin="round"/>
<path d="M29.5 16.3144C29.9405 14.4776 31.0746 12.8824 32.6649 11.8631C34.2552 10.8438 36.1783 10.4794 38.0312 10.8463" stroke="#45413C" stroke-linecap="round" stroke-linejoin="round"/>
<path d="M37.2188 11.8438C37.2188 12.3825 37.4328 12.8991 37.8137 13.2801C38.1946 13.661 38.7113 13.875 39.25 13.875C39.7887 13.875 40.3054 13.661 40.6863 13.2801C41.0672 12.8991 41.2812 12.3825 41.2812 11.8438C41.2812 11.305 41.0672 10.7884 40.6863 10.4074C40.3054 10.0265 39.7887 9.8125 39.25 9.8125C38.7113 9.8125 38.1946 10.0265 37.8137 10.4074C37.4328 10.7884 37.2188 11.305 37.2188 11.8438Z" fill="#FF6242" stroke="#45413C" stroke-linecap="round" stroke-linejoin="round"/>
<path d="M24.2188 36.625H34.7812V46.375H24.2188V36.625Z" stroke="#45413C" stroke-linecap="round" stroke-linejoin="round"/>
<path d="M25.8438 36.625H33.1562C33.5872 36.625 34.0006 36.7962 34.3053 37.101C34.61 37.4057 34.7812 37.819 34.7812 38.25V40.2812H24.2188V38.25C24.2188 37.819 24.39 37.4057 24.6947 37.101C24.9994 36.7962 25.4128 36.625 25.8438 36.625Z" fill="#FF6242" stroke="#45413C" stroke-linecap="round" stroke-linejoin="round"/>
<path d="M37.2188 18.5153C34.9016 17.0755 32.228 16.3125 29.5 16.3125C26.772 16.3125 24.0984 17.0755 21.7812 18.5153V28.5009H37.2188V18.5153Z" stroke="#45413C" stroke-linecap="round" stroke-linejoin="round"/>
<path d="M32.3438 29.3125C32.3438 30.3899 32.7718 31.4233 33.5336 32.1851C34.2955 32.947 35.3288 33.375 36.4062 33.375C37.4837 33.375 38.517 32.947 39.2789 32.1851C40.0407 31.4233 40.4688 30.3899 40.4688 29.3125C40.4688 28.2351 40.0407 27.2017 39.2789 26.4399C38.517 25.678 37.4837 25.25 36.4062 25.25C35.3288 25.25 34.2955 25.678 33.5336 26.4399C32.7718 27.2017 32.3438 28.2351 32.3438 29.3125Z" fill="#00DFEB" stroke="#45413C" stroke-linecap="round" stroke-linejoin="round"/>
<path d="M34.7812 29.3125C34.7812 29.7435 34.9525 30.1568 35.2572 30.4615C35.5619 30.7663 35.9753 30.9375 36.4062 30.9375C36.8372 30.9375 37.2506 30.7663 37.5553 30.4615C37.86 30.1568 38.0312 29.7435 38.0312 29.3125C38.0312 28.8815 37.86 28.4682 37.5553 28.1635C37.2506 27.8587 36.8372 27.6875 36.4062 27.6875C35.9753 27.6875 35.5619 27.8587 35.2572 28.1635C34.9525 28.4682 34.7812 28.8815 34.7812 29.3125Z" fill="#627B8C" stroke="#45413C" stroke-linecap="round" stroke-linejoin="round"/>
<path d="M18.5312 29.3125C18.5313 30.3899 18.9593 31.4233 19.7211 32.1851C20.483 32.947 21.5163 33.375 22.5938 33.375C23.6712 33.375 24.7045 32.947 25.4664 32.1851C26.2282 31.4233 26.6562 30.3899 26.6562 29.3125C26.6562 28.2351 26.2282 27.2017 25.4664 26.4399C24.7045 25.678 23.6712 25.25 22.5938 25.25C21.5163 25.25 20.483 25.678 19.7211 26.4399C18.9593 27.2017 18.5312 28.2351 18.5312 29.3125Z" fill="#00DFEB" stroke="#45413C" stroke-linecap="round" stroke-linejoin="round"/>
<path d="M20.9688 29.3125C20.9688 29.7435 21.14 30.1568 21.4447 30.4615C21.7494 30.7663 22.1628 30.9375 22.5938 30.9375C23.0247 30.9375 23.4381 30.7663 23.7428 30.4615C24.0475 30.1568 24.2188 29.7435 24.2188 29.3125C24.2188 28.8815 24.0475 28.4682 23.7428 28.1635C23.4381 27.8587 23.0247 27.6875 22.5938 27.6875C22.1628 27.6875 21.7494 27.8587 21.4447 28.1635C21.14 28.4682 20.9688 28.8815 20.9688 29.3125Z" fill="#627B8C" stroke="#45413C" stroke-linecap="round" stroke-linejoin="round"/>
</svg>
