<svg width="414" height="896" viewBox="0 0 414 896" fill="none" xmlns="http://www.w3.org/2000/svg">
<g clip-path="url(#clip0_22_119)">
<rect width="414" height="896" rx="30" fill="#232C46"/>
<ellipse cx="18.7527" cy="19.8883" rx="18.7527" ry="19.8883" transform="matrix(0.999959 -0.0090103 0.00801068 0.999968 205.491 249.338)" fill="#29324B"/>
<rect x="197.99" y="274.059" width="75.0106" height="21.0817" rx="10.5408" fill="#29324B"/>
<ellipse cx="250.684" cy="272.269" rx="15.1896" ry="16.1096" fill="#29324B"/>
<ellipse cx="22.9783" cy="26.2929" rx="22.9783" ry="26.2929" transform="matrix(0.999953 -0.00972139 0.00742471 0.999973 364.191 79.4468)" fill="#29324B"/>
<rect x="355" y="112.129" width="91.9122" height="27.8707" rx="13.9354" fill="#29324B"/>
<ellipse cx="419.568" cy="109.763" rx="18.6122" ry="21.2974" fill="#29324B"/>
<ellipse cx="22.9783" cy="26.2929" rx="22.9783" ry="26.2929" transform="matrix(0.999953 -0.00972139 0.00742471 0.999973 -18.8087 175.447)" fill="#29324B"/>
<rect x="-28" y="208.129" width="91.9122" height="27.8707" rx="13.9354" fill="#29324B"/>
<ellipse cx="36.5683" cy="205.763" rx="18.6122" ry="21.2974" fill="#29324B"/>
<ellipse cx="22.9783" cy="26.2929" rx="22.9783" ry="26.2929" transform="matrix(0.999953 -0.00972139 0.00742471 0.999973 321.191 79.4468)" fill="#29324B"/>
<rect x="312" y="112.129" width="91.9122" height="27.8707" rx="13.9354" fill="#29324B"/>
<ellipse cx="376.568" cy="109.763" rx="18.6122" ry="21.2974" fill="#29324B"/>
<ellipse cx="18.7527" cy="19.8883" rx="18.7527" ry="19.8883" transform="matrix(0.999959 -0.0090103 0.00801068 0.999968 81.4906 432.338)" fill="#29324B"/>
<rect x="73.9895" y="457.059" width="75.0106" height="21.0817" rx="10.5408" fill="#29324B"/>
<ellipse cx="126.684" cy="455.269" rx="15.1896" ry="16.1096" fill="#29324B"/>
<ellipse cx="22.6468" cy="18.4159" rx="22.6468" ry="18.4159" transform="matrix(0.999976 -0.00690848 0.0104478 0.999945 43.0588 448.589)" fill="#29324B"/>
<rect x="34" y="471.479" width="90.5883" height="19.5205" rx="9.76025" fill="#29324B"/>
<ellipse cx="97.6382" cy="469.822" rx="18.3441" ry="14.9166" fill="#29324B"/>
<ellipse cx="22.6468" cy="18.4159" rx="22.6468" ry="18.4159" transform="matrix(0.999976 -0.00690848 0.0104478 0.999945 151.059 717.589)" fill="#29324B"/>
<rect x="142" y="740.479" width="90.5883" height="19.5205" rx="9.76025" fill="#29324B"/>
<ellipse cx="205.638" cy="738.822" rx="18.3441" ry="14.9166" fill="#29324B"/>
<ellipse cx="18.7527" cy="19.8883" rx="18.7527" ry="19.8883" transform="matrix(0.999959 -0.0090103 0.00801068 0.999968 23.4906 633.338)" fill="#29324B"/>
<rect x="15.9895" y="658.059" width="75.0106" height="21.0817" rx="10.5408" fill="#29324B"/>
<ellipse cx="68.6844" cy="656.269" rx="15.1896" ry="16.1096" fill="#29324B"/>
<ellipse cx="22.6468" cy="18.4159" rx="22.6468" ry="18.4159" transform="matrix(0.999976 -0.00690848 0.0104478 0.999945 -14.9412 649.589)" fill="#29324B"/>
<rect x="-24" y="672.479" width="90.5883" height="19.5205" rx="9.76025" fill="#29324B"/>
<ellipse cx="39.6382" cy="670.822" rx="18.3441" ry="14.9166" fill="#29324B"/>
<ellipse cx="18.7527" cy="19.8883" rx="18.7527" ry="19.8883" transform="matrix(0.999959 -0.0090103 0.00801068 0.999968 372.491 288.338)" fill="#29324B"/>
<rect x="364.99" y="313.059" width="75.0106" height="21.0817" rx="10.5408" fill="#29324B"/>
<ellipse cx="417.684" cy="311.269" rx="15.1896" ry="16.1096" fill="#29324B"/>
<ellipse cx="22.6468" cy="18.4159" rx="22.6468" ry="18.4159" transform="matrix(0.999976 -0.00690848 0.0104478 0.999945 334.059 304.589)" fill="#29324B"/>
<rect x="325" y="327.479" width="90.5883" height="19.5205" rx="9.76025" fill="#29324B"/>
<ellipse cx="388.638" cy="325.822" rx="18.3441" ry="14.9166" fill="#29324B"/>
<ellipse cx="22.9783" cy="26.2929" rx="22.9783" ry="26.2929" transform="matrix(0.999953 -0.00972139 0.00742471 0.999973 14.1913 175.447)" fill="#29324B"/>
<rect x="5" y="208.129" width="91.9122" height="27.8707" rx="13.9354" fill="#29324B"/>
<ellipse cx="69.5683" cy="205.763" rx="18.6122" ry="21.2974" fill="#29324B"/>
<ellipse cx="18.7527" cy="19.8883" rx="18.7527" ry="19.8883" transform="matrix(0.999959 -0.0090103 0.00801068 0.999968 44.4906 -19.662)" fill="#29324B"/>
<rect x="36.9895" y="5.05933" width="75.0106" height="21.0817" rx="10.5408" fill="#29324B"/>
<ellipse cx="89.6844" cy="3.26938" rx="15.1896" ry="16.1096" fill="#29324B"/>
<ellipse cx="18.7527" cy="19.8883" rx="18.7527" ry="19.8883" transform="matrix(0.999959 -0.0090103 0.00801068 0.999968 309.491 500.338)" fill="#29324B"/>
<rect x="301.99" y="525.059" width="75.0106" height="21.0817" rx="10.5408" fill="#29324B"/>
<ellipse cx="354.684" cy="523.269" rx="15.1896" ry="16.1096" fill="#29324B"/>
<ellipse cx="22.6468" cy="18.4159" rx="22.6468" ry="18.4159" transform="matrix(0.999976 -0.00690848 0.0104478 0.999945 6.05884 -3.41119)" fill="#29324B"/>
<rect x="-3" y="19.4794" width="90.5883" height="19.5205" rx="9.76025" fill="#29324B"/>
<ellipse cx="60.6382" cy="17.8221" rx="18.3441" ry="14.9166" fill="#29324B"/>
<ellipse cx="18.7527" cy="19.8883" rx="18.7527" ry="19.8883" transform="matrix(0.999959 -0.0090103 0.00801068 0.999968 189.491 701.338)" fill="#29324B"/>
<rect x="181.99" y="726.059" width="75.0106" height="21.0817" rx="10.5408" fill="#29324B"/>
<ellipse cx="234.684" cy="724.269" rx="15.1896" ry="16.1096" fill="#29324B"/>
<ellipse cx="22.6468" cy="18.4159" rx="22.6468" ry="18.4159" transform="matrix(0.999976 -0.00690848 0.0104478 0.999945 271.059 516.589)" fill="#29324B"/>
<rect x="262" y="539.479" width="90.5883" height="19.5205" rx="9.76025" fill="#29324B"/>
<ellipse cx="325.638" cy="537.822" rx="18.3441" ry="14.9166" fill="#29324B"/>
<ellipse cx="22.6468" cy="18.4159" rx="22.6468" ry="18.4159" transform="matrix(0.999976 -0.00690848 0.0104478 0.999945 167.059 265.589)" fill="#29324B"/>
<rect x="158" y="288.479" width="90.5883" height="19.5205" rx="9.76025" fill="#29324B"/>
<ellipse cx="221.638" cy="286.822" rx="18.3441" ry="14.9166" fill="#29324B"/>
<ellipse cx="61" cy="344.828" rx="30" ry="36.828" fill="#29324B"/>
<rect x="51.2106" y="336.713" width="18.9474" height="53.0573" fill="#29324B"/>
<rect x="53.2104" y="395.637" width="16" height="9.36306" rx="4.68153" fill="#29324B"/>
<ellipse cx="345.775" cy="671.282" rx="36.2251" ry="43.2824" fill="#29324B"/>
<rect x="333.954" y="661.746" width="22.879" height="62.356" fill="#29324B"/>
<rect x="336.369" y="730.996" width="19.3201" height="11.004" rx="5.502" fill="#29324B"/>
<ellipse cx="214.225" cy="90.2824" rx="36.2251" ry="43.2824" fill="#29324B"/>
<rect x="202.404" y="80.7456" width="22.879" height="62.356" fill="#29324B"/>
<rect x="204.819" y="149.996" width="19.3201" height="11.004" rx="5.502" fill="#29324B"/>
<rect x="-82" y="924.496" width="186" height="200" rx="15" transform="rotate(-42.0156 -82 924.496)" fill="#29324B"/>
<rect x="40" y="945.496" width="186" height="103.837" rx="15" transform="rotate(-42.0156 40 945.496)" fill="#29324B"/>
<rect x="209.001" y="891.945" width="186" height="146.171" rx="15" transform="rotate(-42.0156 209.001 891.945)" fill="#29324B"/>
</g>
<defs>
<clipPath id="clip0_22_119">
<rect width="414" height="896" rx="30" fill="white"/>
</clipPath>
</defs>
</svg>
